/* XPM */
static char *_b6ce5d8832942a685654ffd0041b24bEEr9AJcOOzMb8QmZ[] = {
/* columns rows colors chars-per-pixel */
"54 54 256 2 ",
"   c #2B1C09",
".  c #381C07",
"X  c #281C15",
"o  c #2E160B",
"O  c #3D220B",
"+  c #3C2A0A",
"@  c #372408",
"#  c #2A2519",
"$  c #352414",
"%  c #3B2514",
"&  c #3C2A12",
"*  c #33231B",
"=  c #3C2B1C",
"-  c #372917",
";  c #383418",
":  c #2B290F",
">  c #2D2724",
",  c #3C2D23",
"<  c #362C28",
"1  c #3C3424",
"2  c #3C322D",
"3  c #383628",
"4  c #3E3733",
"5  c #2C312F",
"6  c #1F1202",
"7  c #451E06",
"8  c #43250C",
"9  c #49250C",
"0  c #442A0D",
"q  c #4B2A0D",
"w  c #482505",
"e  c #572A09",
"r  c #46340C",
"t  c #432611",
"y  c #452A14",
"u  c #4C2C14",
"i  c #442C1B",
"p  c #4B2E1A",
"a  c #4A2616",
"s  c #532D13",
"d  c #552B17",
"f  c #45331C",
"g  c #4D321C",
"h  c #463617",
"j  c #543215",
"k  c #52341C",
"l  c #5A341A",
"z  c #5C391E",
"x  c #593716",
"c  c #643C1D",
"v  c #65381C",
"b  c #693210",
"n  c #472E23",
"m  c #453324",
"M  c #4B3423",
"N  c #453C24",
"B  c #4B3B22",
"V  c #4C3B2C",
"C  c #46352B",
"Z  c #533622",
"A  c #5B3524",
"S  c #543A24",
"D  c #5B3A24",
"F  c #533C2B",
"G  c #5B3E2B",
"H  c #593129",
"J  c #4B3D33",
"K  c #443C36",
"L  c #573E32",
"P  c #623C23",
"I  c #643D2A",
"U  c #673A26",
"Y  c #773D28",
"T  c #3C4037",
"R  c #54421B",
"E  c #584318",
"W  c #4C411E",
"Q  c #794519",
"!  c #6C451C",
"~  c #494328",
"^  c #554323",
"/  c #5C4224",
"(  c #5C432C",
")  c #56472B",
"_  c #544333",
"`  c #5B4534",
"'  c #574838",
"]  c #5D5639",
"[  c #4D4335",
"{  c #644324",
"}  c #6B4524",
"|  c #63442C",
" . c #6C452A",
".. c #6D4B2C",
"X. c #694929",
"o. c #734623",
"O. c #754C2B",
"+. c #7C4E2A",
"@. c #784827",
"#. c #79522C",
"$. c #624632",
"%. c #644B35",
"&. c #6B4B34",
"*. c #654C3A",
"=. c #694E39",
"-. c #6A4635",
";. c #744D33",
":. c #7C4D33",
">. c #764A37",
",. c #6B5234",
"<. c #6D523C",
"1. c #665437",
"2. c #745234",
"3. c #7B5334",
"4. c #73543C",
"5. c #7B553B",
"6. c #7B5A3C",
"7. c #775A38",
"8. c #68512F",
"9. c #5A4F47",
"0. c #644D40",
"q. c #6C5341",
"w. c #685748",
"e. c #745642",
"r. c #795543",
"t. c #735A44",
"y. c #7B5C44",
"u. c #735C4B",
"i. c #795D49",
"p. c #755749",
"a. c #675B58",
"s. c #735F56",
"d. c #7B624D",
"f. c #776548",
"g. c #68655A",
"h. c #7B6354",
"j. c #76645D",
"k. c #776859",
"l. c #756B51",
"z. c #6B6965",
"x. c #766B67",
"c. c #7A7369",
"v. c #7B7A74",
"b. c #6B6E6C",
"n. c #5B685F",
"m. c #834D1D",
"M. c #864C26",
"N. c #83522B",
"B. c #8D572C",
"V. c #885428",
"C. c #925A2D",
"Z. c #96582C",
"A. c #814E31",
"S. c #8B4C34",
"D. c #825334",
"F. c #8C5635",
"G. c #855A35",
"H. c #8A5833",
"J. c #83563B",
"K. c #835B3B",
"L. c #8C5C3C",
"P. c #8C573B",
"I. c #935C33",
"U. c #9A5C34",
"Y. c #935C3B",
"T. c #9C5C3C",
"R. c #945538",
"E. c #8B613D",
"W. c #86623A",
"Q. c #9C6236",
"!. c #94643C",
"~. c #9B643D",
"^. c #99683D",
"/. c #B3642E",
"(. c #A3653B",
"). c #A86739",
"_. c #BB6C35",
"`. c #B56D3C",
"'. c #B56835",
"]. c #B9713D",
"[. c #835D43",
"{. c #8B5C44",
"}. c #895C47",
"|. c #9B5D43",
" X c #965D45",
".X c #A05F41",
"XX c #856244",
"oX c #8A6346",
"OX c #83644B",
"+X c #8B654B",
"@X c #84694D",
"#X c #8D6B4B",
"$X c #8D6945",
"%X c #936543",
"&X c #9B6544",
"*X c #946A46",
"=X c #9C6B45",
"-X c #93664B",
";X c #946B4C",
":X c #9C6C4C",
">X c #9D644A",
",X c #9A714C",
"<X c #856C54",
"1X c #8C6B54",
"2X c #886A57",
"3X c #946C54",
"4X c #9C6D52",
"5X c #956957",
"6X c #8B745C",
"7X c #867256",
"8X c #937355",
"9X c #9C7253",
"0X c #94745C",
"qX c #9D745B",
"wX c #98795C",
"eX c #A36B44",
"rX c #AB6D43",
"tX c #A36D4B",
"yX c #A36646",
"uX c #B76E42",
"iX c #A4714E",
"pX c #AB7249",
"aX c #B27245",
"sX c #B4754B",
"dX c #BB7748",
"fX c #A56D54",
"gX c #A27354",
"hX c #AA7655",
"jX c #A47B5B",
"kX c #AC7C5C",
"lX c #A77758",
"zX c #B47B54",
"xX c #BB7E53",
"cX c #B37C5B",
"vX c #897666",
"bX c #947B64",
"nX c #9D7C62",
"mX c #967866",
"MX c #8E7B71",
"NX c #A87C63",
"BX c #B17B66",
"VX c #C57B46",
"CX c #B9815B",
"ZX c #A6805C",
"AX c #9B8268",
"SX c #988675",
"DX c #8E8679",
"FX c #A98369",
"GX c #B98768",
"HX c #A58873",
"JX c #B98E76",
"KX c #C28254",
"LX c #C08A66",
"PX c #998A85",
"IX c #908C87",
"UX c #B79782",
/* pixels */
"IX9.MXUXNXFXNXFXHXvXj.j.mXFXGXGXjXjXkXcXcXcXNXFXAXl.f.7XAXFXGXGXcXcXcXGXFXNXqX5X[.qXGXFXkXcXcXcXcXJX1X2Xw.PX",
"x.2 h.HXjXNXNXFXvXu.' ' i.3XgX=X,X,X:XtXfXfX9X8X7.) W 1.@XnXNXBXfXtXpXhXlX9X-XoXI [.jXkXkXcXCXCXtXjX&.L , c.",
"a.* p.nX4XlXjXNX2X*.n M e.9XtX~.%X%X%X&X|.&X%XoX,.h + ^ OXqXlXfXyXyX&X=X:X*X{.J.d ;.:XlXlXzXzXzXtXqXI n X z.",
"x., i.NX:XiX:XqX0X*.i M [.NXhX=X!.%X~.~.T.|.%XoXf.^ r ^ @XqXfX>XyX(.&X=X:X*X{.5.d :.:XgXtXtXrXeXtXqXI n * x.",
"vXm [.jX&X=X%X-X+XG . a y.jXpXQ.^.!.~.~.T.T.Y.E.W.R + R [.;X XR.(.(.~.&X=X%XL.3.l 3.:XiXeX(.(.U.Y.-XA n # z.",
"j.% r.9XY.!.Y.oX[.G % p [.lXpXU.!.!.Y.U.U.R.F.G.7.x r z 6.-X XR.U.Z.I.Y.!.L.D.@.e +.&XeX~.(.(.~.F.+XA m * x.",
"s.% 4.4XF.I.F.L.[.G a A {.lXrXU.!.!.U.U.U.R.F.G.#.E r E 6.%X X|.Z.Z.C.I.I.H.+.o.e @.!.~.I.U.Q.Q.L.+XD m * x.",
"x.i r.9XF.I.N.D.;.Z t Z J.:X(.Z.^.^.~.~.T.U.Y.L.#.E r E O.D.S.R.Z.C.C.I.Y.H.#.o.x O.!.!.B.Z.Z.C.G.oXp % X z.",
"j.m 4.-XF.N.o.L.;.k . p 5.gXrXU.^.^.~.~.T.T.Y.E.7.E r E 2.J.F.S.I.C.B.H.H.D.O.} x O.E.E.B.B.C.B.L.6.D $ X v.",
"j.m e.3XL.D.o.5.4.Z % M 5.:XeXI.^.!.~.T.T.R.L.K.7.E r R 2.J.S.S.M.M.+.+.#.#.} { s } K.G.N.N.M.N.3.,.S $ X v.",
"a.m q.+XJ.3.v  .-.M % M e.;X&XI.%X%X%XY.R.P.J.7.,.W ; W &.4.:.A.@.Q ! o.O...} / q { 3.2.@.@.@.@.O...B - # v.",
"z.2 0.e.;.O.v { F = * m q.1X:X%X*X$X%X{.L.P.J.7.1.~ ; ~ %.&.>.@.@.o.} } ..X./ z 8 / 2.2.} } o.} 2.X.g = > v.",
"b.4 ' L A { l G = X X m 0.OX;X&XoXXX{.{.{.J.5.4.` ~ ; N ` $.I U  .} { { ( ^ B f & ( <.1.X.} } } 2./ y - # c.",
"z.> , % . u 8 i * # > 2 ' e.[.[.4.4.4.>.>.>.&.*.) ; ; 1 V F H A z x k k B f = $ = _ q.<.| | } { } h @ : # b.",
"b.5 2 * . p t % , < < 2 J L I { S S D D P A D V ~ ; ; 3 C m n p u 0 y h f f = - - _ 0.1.( / / / j + @ = < v.",
"DX9.w.$.D 4.I A F V C m n p u q 0 t y a a u u i N ; : 1 m i a a y 8 y f N N N 1 $ ~ *.%.( ^ ^ ^ 0 @ @ ~ [ DX",
"nXwXqXlXlXhXiXtX%X%XoXoXoXoX{.OX<.S y D r.OXOXOXd.t.t.t.q.` ` *.=.p @ B ] ] _ ~ & Z ( G ^ ) ~ ;   O S u.vXSX",
"kXkXzXzXxXxXsXaXaXaXpXpXiXgX9XqXnXt.( &.y.OXy.4.4.4.4.i.i.t.u.h.$.p % ; ~ ~ ~ N & g Z p i f ; :   y ( d.bXHX",
"CXzXxXxXxXVXdXuXdXdXdXsXzXhXhXjX+X( 8 8 g k u 8 u 8 8 y i % % i Z y @ $ ; ; ; ; y p u 7 O + :   $ M <.2XAXHX",
"xXsXsXsXdXdX]._.`.`.`.`.rXrXtX:X1X$.t y Z D D k D g u g g i y p k p y & : ; N ) ` -.-.I D ^ f : % ( d.vXAXSX",
"xXsXaXaX].]._.'.'.'.'.'.).).).=X8X=.g k $.<.=.=.G Z Z $.<.<.<.y.D | ( B f ) w.7XOX1X5X1XOXd.] B & *.2XbXmXSX",
"CXzXaXrXaX]._.'._.'.`.`.).).eXtXoX( t y S ( F S g t O g D D z D l D S h ; ) l.bXOX5X5X5X1X@X1.f & <.bXbXvXSX",
"NXlXtXeXeX).(.(.).).).(.(.~.~.&X8X<.Z S %.*.` ( ` M p k D z j s d l j @ @ ) f.6X}.oX}.}.OXi.` y 0 e.bXvXvXMX",
"nX0X+XoX%X!.Y.I.I.I.I.H.F.F.G.K.OX( y M ` ` F C F i t k { } P U l P k @ + ] <XwX0X4X3X}.+X@X<.^ 0 r.bXvXk.MX",
"PX0.u.d.y.oX:.D.o.o.@.O.;.;.;.;.&.S g F F V V J V m . wX+X%X:X%X-X{.[.| + W f.1X+X}.{. X-XXX8.S u 4.<.h.0.MX",
"x.< C C i Z 8 q s s s s d k k k k y t M _ _ J [ J m . wXoX%X=XY. X{.oX..+ h ,.2.;.@.Y :.:.&.S r . D y F , g.",
"z.> 4 C n F p A 9 9 9 q a a u u Z y y F ' [ J J J m O wXoX!.&XI.Y.{.oX..+ 0 / z l d d b v l q @ 7 s o $ X a.",
"c.K a.j.h.mX1XqX9X9X9X9X9XqX0X0Xy.$.F _ ' [ J J J m O wX%X!.~.I.R.{.{...0 r X.} @.Y Y Y @. .D x z  .O i > z.",
"j.J k.mXHXJXFXGXLXLXLXLXGXGXGXGXnXy.F V J J K K K m O nX*X~.Q.Z.T.P.{...q z XXoX4X>X|. X X{.6.7.2.y.D _ K v.",
"h.G 1XFXFXGXpXzXaXaXaXaXrXrXrXiXjX4.g = 1 2 4 K 4 , . nX*X^.(.Z.|.Y.L...q { 8XjXfXyX>X|.L.K.6.6.3.oX| ' 4 b.",
"1X .9XGXcXCXrXdXVXVXVXVXVXVXVXsX9X=.y $ , 2 2 2 2 , . nX=X(.).U.yX X{...q / #X9XP.R.S.S.+.O.2.7.O.oX| ` < z.",
":X@.gXCXzXKX].VX_._._._.'.'.'.).gX<.i % , , * # , - . NX:XeX).Q.(.Y.Y.o.w x L.%XF.R.S.S.A.A.G.W.#.oX$._ > g.",
"%Xc =XCXxXKX`.VX/././.'.'.'.'.rXqX$.y S *.%.$.*.<.8 j oX*XE.%X&XeXU.Q.M.b b I.I.M.M.M.M.M.M.M.N.3.6.%.w.3 b.",
"oXU *XkXpXsX).`.`.`.uXuXuXuXsXhX3X( t Z =.=.&.4.;.9 l +X3XoX*X*X~.I.I.Q e b B.B.C.C.C.C.C.C.C.H.J.y.%.w.3 z.",
"OX| 0XFX9XiXY.eXeXrXrXrXrXtXfXgX1X` y S =.<.4.4.X.9 z ;X9X;X;X%X*X%X%XO.e b G.L.G.G.G.G.G.G.G.G.[.OX<.t.1 z.",
"k.' bXHX0X9X%XgX&X&X&X>X:X4X4X3X2X*.g S $.$.| | P w z #X9X9X9X+X3X3X8X5.s z oX#X6.6.6.6.6.6.6.6.{.+X4.u.1 j.",
"x.' x.vX<X1XXX3X-X-X-X3X5X5X5X5X@X%.g p Z Z k j z 7 l [.+X*X;XXX<X<X<X<.p S i.d.i.i.i.i.i.i.i.y.r.[.-.q., j.",
"g.2 9.w.*.e.&.5.3.5.5.5.r.r.r.e.=.F y t g Z k k { 9 s ..O.3.J.;.<.=.q.` & g *.$.%.%.%.%.%.%.%.-. .>.P -.= j.",
"j.< C V M ( j z x x l l A A A A Z i t y ( 4.y.y.2.s q l x c } j D g S g . y S y p p p p p p p p d v d G % j.",
"c.- = y 0 j w w e e e e d d d d y y y S r.bXHXHX[.z q q w q s 7 j 0 u q . u k O 9 9 9 9 9 9 9 9 7 d 7 A $ j.",
"AX7X6X8X#X,XlX!.H.b M.eXiXgXlX3X0Xd.$.S <.0XnX1X2.s s oXFXjX9XjXjXjXgX9X9X9XgXgX9X,X9X,X9X,X,X4XfXfXqXmXMXPX",
"AX7X8XwX*X,XtXB.B.Q B.pXtXtXhX*X1Xe.S Z 4.0X0Xy.;.j j XXjX3XXXoX*X%X!.!.!.!.!.%X=X=X=X=X=X=X=X=X-X3X5X2XMXSX",
"6Xf.XX#XE.!.^.m.m.Q Z.rX~.!.&XL.OX*.g g e.6X1X4.{ q s 5.;X[.O.#.N.N.N.N.N.N.N.N.H.H.H.H.H.H.H.F.J.}.[.p.h.MX",
"7X1.8.7.#.G.W.+.Q Q ~.pXI.H.Y.D.4.` g Z %.i.y.4.D q s ;.XX3.O.3.+.+.@.@.@.+.N.N.+.+.+.+.+.+.+.+.:.5.4.*.w.c.",
"c.) B ) / { O.! c ! !.:X3.O.3.&.G F S Z Z D | &.P s s { O.} { O.} { c c c P } } } } } } } } }  .l X.| F 9.c.",
"z.3 : ; & + q w q x 2.2.z D | g y g G ( Z y u D j q q j j w w s 8 8 8 O O O O 8 O O O O O O O . . q t @ 1 g.",
"n.5 # 3 3 1 f & f k %.%.M F ` m y M =.i.<.k y u s j P ..} c c D S M m n = = = = % % % % % % % & 8 k p   , g.",
"b.T T g.l.s.f.<.1.<.OXd.<.u.k.' g ( f.bX0X&.u w { 2.#XjXFXjX9XqX1X2Xh.d.u.u.u.u.h.d.h.d.h.d.h.i.4.oX4.B [ k.",
"k.m u.SXAXAX#XqX9X;X;X8XwXwX<Xr.g g 0XwX7.2.z j c 9XjX*X;X,X*X,XgXgX9X9X4X4X4X4X4X4X4X4X4X4X4X4X9X9X3X<.$ vX",
"k.V d.mXnXNX*XgX%XE.K.L.oXXX;.{ 8 y 1X8X4.&.q w } 9XZX*X,X,X*X:XY.Y.L.L.P.F.F.F.Y.Y.Y.Y.Y.Y.Y.Y.D.3.2.D 6 h.",
"w.$ _ t.e.y. .3.D.3.O.;.;.X.Z y O + @X<X1.%.0 O q 7.K...#.#.} O.D.D.D.D.A.A.:.+.A.A.A.A.A.A.A.:.K.3.4.%.$ vX",
"c.J w.h.u.d.4.[.2.;.....&.| Z i M f h.h.1.1.g u ( OX@X7.6.6.2.7.5.3.5.3.3.3.:.;.;.;.;.;.;.;.;.;.l j k f 6 g.",
"9.# C V m F p S u y y y y % $   -   _ V $ i @ @ & ( ( g S k y k 0 0 y 0 8 8 8 8 y y y y y y y y k 0 f m   g.",
"IXg.c.c.k.vXh.<X2X6X6XvXvXvXvXvXDXk.SXMXk.vX7XvXl.vX6X<X6X<Xf.7X6X6X6X6X6X6X7X7X6X6X6X6X6X6X6X6X@X<.f.k.' IX"
};
